<svg width="19" height="18" viewBox="0 0 19 18" fill="none" xmlns="http://www.w3.org/2000/svg">
<g id="ic:outline-alternate-email">
<path id="Vector" d="M9.44911 1.49257C5.36901 1.49257 2.05762 4.80395 2.05762 8.88406C2.05762 12.9642 5.36901 16.2756 9.44911 16.2756H13.1449V14.7973H9.44911C6.2412 14.7973 3.53592 12.092 3.53592 8.88406C3.53592 5.67615 6.2412 2.97086 9.44911 2.97086C12.657 2.97086 15.3623 5.67615 15.3623 8.88406V9.94104C15.3623 10.525 14.8375 11.1015 14.2536 11.1015C13.6697 11.1015 13.1449 10.525 13.1449 9.94104V8.88406C13.1449 6.84401 11.4892 5.18831 9.44911 5.18831C7.40906 5.18831 5.75336 6.84401 5.75336 8.88406C5.75336 10.9241 7.40906 12.5798 9.44911 12.5798C10.4691 12.5798 11.4005 12.1659 12.0657 11.4933C12.5461 12.1511 13.374 12.5798 14.2536 12.5798C15.7097 12.5798 16.8406 11.3972 16.8406 9.94104V8.88406C16.8406 4.80395 13.5292 1.49257 9.44911 1.49257ZM9.44911 11.1015C8.22212 11.1015 7.23166 10.111 7.23166 8.88406C7.23166 7.65707 8.22212 6.66661 9.44911 6.66661C10.6761 6.66661 11.6666 7.65707 11.6666 8.88406C11.6666 10.111 10.6761 11.1015 9.44911 11.1015Z" fill="#0B4654" fill-opacity="0.5"/>
</g>
</svg>
