<svg width="19" height="19" viewBox="0 0 19 19" fill="none" xmlns="http://www.w3.org/2000/svg">
<g id="ri:lock-password-fill">
<path id="Vector" d="M13.8846 6.83549H15.3629C15.5589 6.83549 15.7469 6.91336 15.8856 7.05198C16.0242 7.1906 16.1021 7.37861 16.1021 7.57464V16.4444C16.1021 16.6405 16.0242 16.8285 15.8856 16.9671C15.7469 17.1057 15.5589 17.1836 15.3629 17.1836H3.53651C3.34048 17.1836 3.15247 17.1057 3.01386 16.9671C2.87524 16.8285 2.79736 16.6405 2.79736 16.4444V7.57464C2.79736 7.37861 2.87524 7.1906 3.01386 7.05198C3.15247 6.91336 3.34048 6.83549 3.53651 6.83549H5.01481V6.09634C5.01481 4.92013 5.48206 3.7921 6.31376 2.9604C7.14547 2.12869 8.2735 1.66145 9.44971 1.66145C10.6259 1.66145 11.7539 2.12869 12.5857 2.9604C13.4174 3.7921 13.8846 4.92013 13.8846 6.09634V6.83549ZM12.4063 6.83549V6.09634C12.4063 5.3122 12.0948 4.56018 11.5403 4.00571C10.9859 3.45124 10.2338 3.13974 9.44971 3.13974C8.66557 3.13974 7.91355 3.45124 7.35908 4.00571C6.80461 4.56018 6.49311 5.3122 6.49311 6.09634V6.83549H12.4063ZM8.71056 11.2704V12.7487H10.1889V11.2704H8.71056ZM5.75396 11.2704V12.7487H7.23226V11.2704H5.75396ZM11.6672 11.2704V12.7487H13.1455V11.2704H11.6672Z" fill="#0B4654" fill-opacity="0.5"/>
</g>
</svg>
