<svg width="19" height="19" viewBox="0 0 19 19" fill="none" xmlns="http://www.w3.org/2000/svg">
<g id="carbon:user-avatar-filled">
<path id="Vector" d="M15.4084 14.7395C16.2045 13.7816 16.7582 12.6461 17.0227 11.429C17.2871 10.2118 17.2546 8.94891 16.9277 7.74703C16.6009 6.54515 15.9893 5.43967 15.1449 4.52411C14.3004 3.60855 13.2479 2.90985 12.0763 2.48711C10.9047 2.06437 9.64848 1.93003 8.41398 2.09545C7.17948 2.26088 6.00298 2.72119 4.984 3.43747C3.96503 4.15374 3.13356 5.1049 2.55993 6.21048C1.9863 7.31606 1.68739 8.54353 1.68848 9.78907C1.6889 11.5997 2.32696 13.3524 3.49071 14.7395L3.47962 14.7489C3.51843 14.7955 3.56278 14.8354 3.60269 14.8814C3.65258 14.9385 3.70636 14.9923 3.75791 15.0477C3.91313 15.2163 4.07279 15.3781 4.24021 15.53C4.29121 15.5766 4.34387 15.6198 4.39543 15.6642C4.57282 15.8172 4.75521 15.9624 4.94425 16.0977C4.96864 16.1143 4.99081 16.136 5.01521 16.1531V16.1465C6.31358 17.0602 7.86247 17.5505 9.4501 17.5505C11.0377 17.5505 12.5866 17.0602 13.885 16.1465V16.1531C13.9094 16.136 13.931 16.1143 13.956 16.0977C14.1444 15.9619 14.3274 15.8172 14.5048 15.6642C14.5563 15.6198 14.609 15.576 14.66 15.53C14.8274 15.3776 14.9871 15.2163 15.1423 15.0477C15.1938 14.9923 15.2471 14.9385 15.2975 14.8814C15.3369 14.8354 15.3818 14.7955 15.4206 14.7484L15.4084 14.7395ZM9.44955 5.35417C9.94294 5.35417 10.4252 5.50048 10.8355 5.77459C11.2457 6.0487 11.5655 6.43831 11.7543 6.89415C11.9431 7.34998 11.9925 7.85157 11.8962 8.33548C11.8 8.81939 11.5624 9.26389 11.2135 9.61277C10.8646 9.96165 10.4201 10.1992 9.93622 10.2955C9.45231 10.3918 8.95073 10.3423 8.49489 10.1535C8.03906 9.96472 7.64945 9.64498 7.37534 9.23474C7.10123 8.8245 6.95492 8.34219 6.95492 7.8488C6.95492 7.18718 7.21774 6.55266 7.68558 6.08483C8.15341 5.617 8.78793 5.35417 9.44955 5.35417ZM5.01853 14.7395C5.02815 14.0116 5.32396 13.3168 5.84196 12.8053C6.35996 12.2938 7.0585 12.0069 7.78646 12.0065H11.1126C11.8406 12.0069 12.5391 12.2938 13.0571 12.8053C13.5751 13.3168 13.8709 14.0116 13.8806 14.7395C12.6648 15.8351 11.0862 16.4415 9.44955 16.4415C7.81293 16.4415 6.23434 15.8351 5.01853 14.7395Z" fill="#0B4654" fill-opacity="0.5"/>
</g>
</svg>
