<svg width="19" height="18" viewBox="0 0 19 18" fill="none" xmlns="http://www.w3.org/2000/svg">
<g id="ant-design:eye-invisible-filled">
<path id="Vector" d="M9.77873 10.9932C10.2933 10.9932 10.7868 10.7888 11.1507 10.4249C11.5146 10.0611 11.719 9.56754 11.719 9.05295C11.719 8.99613 11.7164 8.93983 11.7115 8.88422L9.61 10.9858C9.66561 10.9906 9.72174 10.9932 9.77873 10.9932ZM16.201 3.05129L15.4609 2.31191C15.435 2.28594 15.3997 2.27135 15.363 2.27135C15.3262 2.27135 15.291 2.28594 15.265 2.31191L13.3712 4.20627C12.3264 3.67235 11.152 3.40539 9.84803 3.40539C6.51839 3.40539 4.03416 5.1395 2.39532 8.60773C2.32945 8.74721 2.29529 8.89956 2.29529 9.05382C2.29529 9.20807 2.32945 9.36042 2.39532 9.4999C3.05016 10.8792 3.83869 11.9848 4.76089 12.8165L2.92821 14.6485C2.90223 14.6745 2.88764 14.7098 2.88764 14.7465C2.88764 14.7832 2.90223 14.8185 2.92821 14.8445L3.66776 15.584C3.69375 15.61 3.72898 15.6246 3.76572 15.6246C3.80247 15.6246 3.8377 15.61 3.86369 15.584L16.201 3.2474C16.2139 3.23453 16.2241 3.21924 16.2311 3.20242C16.2381 3.18559 16.2417 3.16756 16.2417 3.14934C16.2417 3.13113 16.2381 3.1131 16.2311 3.09627C16.2241 3.07945 16.2139 3.06416 16.201 3.05129ZM6.72974 9.05295C6.72969 8.52632 6.86605 8.00865 7.12553 7.55038C7.38502 7.09211 7.75877 6.70886 8.21039 6.43797C8.66202 6.16708 9.1761 6.01779 9.70257 6.00463C10.229 5.99148 10.7499 6.11491 11.2145 6.36291L10.3722 7.20519C10.0326 7.09643 9.66948 7.08333 9.32284 7.16733C8.9762 7.25134 8.65939 7.4292 8.40719 7.68141C8.15498 7.93361 7.97712 8.25042 7.89311 8.59706C7.80911 8.9437 7.82221 9.30678 7.93097 9.64646L7.08869 10.4887C6.85232 10.0471 6.729 9.55385 6.72974 9.05295Z" fill="#0B4654" fill-opacity="0.24"/>
<path id="Vector_2" d="M17.301 8.60601C16.6912 7.32173 15.9654 6.27451 15.1236 5.46433L12.6265 7.96156C12.837 8.51179 12.8836 9.1112 12.7608 9.68737C12.638 10.2635 12.351 10.7918 11.9344 11.2084C11.5178 11.625 10.9896 11.912 10.4134 12.0348C9.83722 12.1576 9.23781 12.111 8.68758 11.9005L6.56957 14.0185C7.55218 14.4732 8.64508 14.7005 9.84828 14.7005C13.1779 14.7005 15.6622 12.9664 17.301 9.49818C17.3669 9.3587 17.401 9.20636 17.401 9.05209C17.401 8.89783 17.3669 8.74549 17.301 8.60601Z" fill="#0B4654" fill-opacity="0.24"/>
</g>
</svg>
